<svg width="1000" height="488" viewBox="0 0 1000 488" fill="none" xmlns="http://www.w3.org/2000/svg">
<path d="M370 109H136L370 165V109Z" fill="black"/>
<path d="M501 71H323L501 127V71Z" fill="black"/>
<path d="M804 86H626L804 142V86Z" fill="black"/>
<path d="M225 42H107L225 96V42Z" fill="black"/>
<path d="M888 163H770L888 217V163Z" fill="black"/>
<path d="M118 77H42L118 121V77Z" fill="black"/>
<path d="M951 125H875L951 169V125Z" fill="black"/>
<path d="M57 21H11L57 65V21Z" fill="black"/>
<path d="M987 96H941L987 140V96Z" fill="black"/>
<path d="M656 21H587L656 65V21Z" fill="black"/>
<path d="M57 120H11L57 163V120Z" fill="black"/>
<path d="M987 195H941L987 238V195Z" fill="black"/>
<path d="M656 120H587L656 163V120Z" fill="black"/>
<path d="M57 219H11L57 262V219Z" fill="black"/>
<path d="M987 294H941L987 337V294Z" fill="black"/>
<path d="M656 219H587L656 262V219Z" fill="black"/>
<path d="M57 317H11L57 361V317Z" fill="black"/>
<path d="M987 392H941L987 436V392Z" fill="black"/>
<path d="M656 317H587L656 361V317Z" fill="black"/>
<path d="M118 182H42L118 226V182Z" fill="black"/>
<path d="M951 230H875L951 274V230Z" fill="black"/>
<path d="M118 287H42L118 331V287Z" fill="black"/>
<path d="M951 335H875L951 379V335Z" fill="black"/>
<path d="M118 392H42L118 436V392Z" fill="black"/>
<path d="M951 440H875L951 484V440Z" fill="black"/>
<path d="M594 42H476L594 96V42Z" fill="black"/>
<path d="M501 176H323L501 232V176Z" fill="black"/>
<path d="M804 191H626L804 247V191Z" fill="black"/>
<path d="M225 143H107L225 197V143Z" fill="black"/>
<path d="M888 264H770L888 318V264Z" fill="black"/>
<path d="M594 143H476L594 197V143Z" fill="black"/>
<path d="M501 281H323L501 337V281Z" fill="black"/>
<path d="M804 296H626L804 352V296Z" fill="black"/>
<path d="M804 401H626L804 457V401Z" fill="black"/>
<path d="M225 244H107L225 298V244Z" fill="black"/>
<path d="M888 365H770L888 419V365Z" fill="black"/>
<path d="M225 345H107L225 431V345Z" fill="black"/>
<path d="M594 244H476L594 298V244Z" fill="black"/>
<path d="M370 207H136L370 263V207Z" fill="black"/>
<path d="M370 305H136L370 361V305Z" fill="black"/>
</svg>
