<svg width="1000" height="488" viewBox="0 0 1000 488" fill="none" xmlns="http://www.w3.org/2000/svg">
<g clip-path="url(#clip0_342_283)">
<rect x="-0.0712891" y="201.071" width="10" height="10" transform="rotate(-45 -0.0712891 201.071)" fill="black"/>
<rect x="116.929" y="201.071" width="10" height="10" transform="rotate(-45 116.929 201.071)" fill="black"/>
<rect x="986" y="201.071" width="10" height="10" transform="rotate(-45 986 201.071)" fill="black"/>
<path d="M241.929 227.071L249 220L256.071 227.071L249 234.142L241.929 227.071Z" fill="black"/>
<rect x="366.929" y="132.071" width="10" height="10" transform="rotate(-45 366.929 132.071)" fill="black"/>
<rect x="493" y="11.0742" width="10" height="10" transform="rotate(-45 493 11.0742)" fill="black"/>
<rect x="618" y="176.074" width="10" height="10" transform="rotate(-45 618 176.074)" fill="black"/>
<rect x="743" y="81.0742" width="10" height="10" transform="rotate(-45 743 81.0742)" fill="black"/>
<rect x="868" y="81.0742" width="10" height="10" transform="rotate(-45 868 81.0742)" fill="black"/>
</g>
<defs>
<clipPath id="clip0_342_283">
<rect width="1000" height="488" fill="white"/>
</clipPath>
</defs>
</svg>
