<svg width="1000" height="488" viewBox="0 0 1000 488" fill="none" xmlns="http://www.w3.org/2000/svg">
<g clip-path="url(#clip0_222_43)">
<ellipse cx="12.3333" cy="12.2" rx="12.3333" ry="12.2" fill="black"/>
<ellipse cx="12.3333" cy="109.8" rx="12.3333" ry="12.2" fill="black"/>
<ellipse cx="12.3333" cy="60.9998" rx="12.3333" ry="12.2" fill="black"/>
<ellipse cx="36.9993" cy="36.5999" rx="12.3333" ry="12.2" fill="black"/>
<ellipse cx="36.9993" cy="85.3997" rx="12.3333" ry="12.2" fill="black"/>
<ellipse cx="61.6663" cy="60.9998" rx="12.3333" ry="12.2" fill="black"/>
<ellipse cx="61.6663" cy="12.2" rx="12.3333" ry="12.2" fill="black"/>
<ellipse cx="61.6663" cy="109.8" rx="12.3333" ry="12.2" fill="black"/>
<ellipse cx="365.333" cy="12.2" rx="12.3333" ry="12.2" fill="black"/>
<ellipse cx="365.333" cy="109.8" rx="12.3333" ry="12.2" fill="black"/>
<ellipse cx="365.333" cy="60.9998" rx="12.3333" ry="12.2" fill="black"/>
<ellipse cx="389.999" cy="36.5999" rx="12.3333" ry="12.2" fill="black"/>
<ellipse cx="389.999" cy="85.3997" rx="12.3333" ry="12.2" fill="black"/>
<ellipse cx="414.666" cy="60.9998" rx="12.3333" ry="12.2" fill="black"/>
<ellipse cx="414.666" cy="12.2" rx="12.3333" ry="12.2" fill="black"/>
<ellipse cx="414.666" cy="109.8" rx="12.3333" ry="12.2" fill="black"/>
<ellipse cx="718.333" cy="12.2" rx="12.3333" ry="12.2" fill="black"/>
<ellipse cx="718.333" cy="109.8" rx="12.3333" ry="12.2" fill="black"/>
<ellipse cx="718.333" cy="60.9998" rx="12.3333" ry="12.2" fill="black"/>
<ellipse cx="742.999" cy="36.5999" rx="12.3333" ry="12.2" fill="black"/>
<ellipse cx="742.999" cy="85.3997" rx="12.3333" ry="12.2" fill="black"/>
<ellipse cx="767.667" cy="60.9998" rx="12.3333" ry="12.2" fill="black"/>
<ellipse cx="767.667" cy="12.2" rx="12.3333" ry="12.2" fill="black"/>
<ellipse cx="767.667" cy="109.8" rx="12.3333" ry="12.2" fill="black"/>
<ellipse cx="232.333" cy="377.2" rx="12.3333" ry="12.2" fill="black"/>
<ellipse cx="232.333" cy="474.8" rx="12.3333" ry="12.2" fill="black"/>
<ellipse cx="232.333" cy="426" rx="12.3333" ry="12.2" fill="black"/>
<ellipse cx="256.999" cy="401.6" rx="12.3333" ry="12.2" fill="black"/>
<ellipse cx="256.999" cy="450.4" rx="12.3333" ry="12.2" fill="black"/>
<ellipse cx="281.666" cy="426" rx="12.3333" ry="12.2" fill="black"/>
<ellipse cx="281.666" cy="377.2" rx="12.3333" ry="12.2" fill="black"/>
<ellipse cx="281.666" cy="474.8" rx="12.3333" ry="12.2" fill="black"/>
<ellipse cx="585.333" cy="377.2" rx="12.3333" ry="12.2" fill="black"/>
<ellipse cx="585.333" cy="474.8" rx="12.3333" ry="12.2" fill="black"/>
<ellipse cx="585.333" cy="426" rx="12.3333" ry="12.2" fill="black"/>
<ellipse cx="609.999" cy="401.6" rx="12.3333" ry="12.2" fill="black"/>
<ellipse cx="609.999" cy="450.4" rx="12.3333" ry="12.2" fill="black"/>
<ellipse cx="634.667" cy="426" rx="12.3333" ry="12.2" fill="black"/>
<ellipse cx="634.667" cy="377.2" rx="12.3333" ry="12.2" fill="black"/>
<ellipse cx="634.667" cy="474.8" rx="12.3333" ry="12.2" fill="black"/>
<ellipse cx="938.333" cy="377.2" rx="12.3333" ry="12.2" fill="black"/>
<ellipse cx="938.333" cy="474.8" rx="12.3333" ry="12.2" fill="black"/>
<ellipse cx="938.333" cy="426" rx="12.3333" ry="12.2" fill="black"/>
<ellipse cx="962.999" cy="401.6" rx="12.3333" ry="12.2" fill="black"/>
<ellipse cx="962.999" cy="450.4" rx="12.3333" ry="12.2" fill="black"/>
<ellipse cx="987.667" cy="426" rx="12.3333" ry="12.2" fill="black"/>
<ellipse cx="987.667" cy="377.2" rx="12.3333" ry="12.2" fill="black"/>
<ellipse cx="987.667" cy="474.8" rx="12.3333" ry="12.2" fill="black"/>
<ellipse cx="158.433" cy="255.7" rx="12.3333" ry="12.2" fill="black"/>
<ellipse cx="158.433" cy="353.3" rx="12.3333" ry="12.2" fill="black"/>
<ellipse cx="158.433" cy="304.5" rx="12.3333" ry="12.2" fill="black"/>
<ellipse cx="183.099" cy="280.1" rx="12.3333" ry="12.2" fill="black"/>
<ellipse cx="183.099" cy="328.9" rx="12.3333" ry="12.2" fill="black"/>
<ellipse cx="207.766" cy="304.5" rx="12.3333" ry="12.2" fill="black"/>
<ellipse cx="207.766" cy="255.7" rx="12.3333" ry="12.2" fill="black"/>
<ellipse cx="207.766" cy="353.3" rx="12.3333" ry="12.2" fill="black"/>
<ellipse cx="511.433" cy="255.7" rx="12.3333" ry="12.2" fill="black"/>
<ellipse cx="511.433" cy="353.3" rx="12.3333" ry="12.2" fill="black"/>
<ellipse cx="511.433" cy="304.5" rx="12.3333" ry="12.2" fill="black"/>
<ellipse cx="536.099" cy="280.1" rx="12.3333" ry="12.2" fill="black"/>
<ellipse cx="536.099" cy="328.9" rx="12.3333" ry="12.2" fill="black"/>
<ellipse cx="560.767" cy="304.5" rx="12.3333" ry="12.2" fill="black"/>
<ellipse cx="560.767" cy="255.7" rx="12.3333" ry="12.2" fill="black"/>
<ellipse cx="560.767" cy="353.3" rx="12.3333" ry="12.2" fill="black"/>
<ellipse cx="864.433" cy="255.7" rx="12.3333" ry="12.2" fill="black"/>
<ellipse cx="864.433" cy="353.3" rx="12.3333" ry="12.2" fill="black"/>
<ellipse cx="864.433" cy="304.5" rx="12.3333" ry="12.2" fill="black"/>
<ellipse cx="889.099" cy="280.1" rx="12.3333" ry="12.2" fill="black"/>
<ellipse cx="889.099" cy="328.9" rx="12.3333" ry="12.2" fill="black"/>
<ellipse cx="913.767" cy="304.5" rx="12.3333" ry="12.2" fill="black"/>
<ellipse cx="913.767" cy="255.7" rx="12.3333" ry="12.2" fill="black"/>
<ellipse cx="913.767" cy="353.3" rx="12.3333" ry="12.2" fill="black"/>
<ellipse cx="85.3831" cy="133.95" rx="12.3333" ry="12.2" fill="black"/>
<ellipse cx="85.3831" cy="231.55" rx="12.3333" ry="12.2" fill="black"/>
<ellipse cx="85.3831" cy="182.75" rx="12.3333" ry="12.2" fill="black"/>
<ellipse cx="110.049" cy="158.35" rx="12.3333" ry="12.2" fill="black"/>
<ellipse cx="110.049" cy="207.15" rx="12.3333" ry="12.2" fill="black"/>
<ellipse cx="134.716" cy="182.75" rx="12.3333" ry="12.2" fill="black"/>
<ellipse cx="134.716" cy="133.95" rx="12.3333" ry="12.2" fill="black"/>
<ellipse cx="134.716" cy="231.55" rx="12.3333" ry="12.2" fill="black"/>
<ellipse cx="438.383" cy="133.95" rx="12.3333" ry="12.2" fill="black"/>
<ellipse cx="438.383" cy="231.55" rx="12.3333" ry="12.2" fill="black"/>
<ellipse cx="438.383" cy="182.75" rx="12.3333" ry="12.2" fill="black"/>
<ellipse cx="463.049" cy="158.35" rx="12.3333" ry="12.2" fill="black"/>
<ellipse cx="463.049" cy="207.15" rx="12.3333" ry="12.2" fill="black"/>
<ellipse cx="487.716" cy="182.75" rx="12.3333" ry="12.2" fill="black"/>
<ellipse cx="487.716" cy="133.95" rx="12.3333" ry="12.2" fill="black"/>
<ellipse cx="487.716" cy="231.55" rx="12.3333" ry="12.2" fill="black"/>
<ellipse cx="791.384" cy="133.95" rx="12.3333" ry="12.2" fill="black"/>
<ellipse cx="791.384" cy="231.55" rx="12.3333" ry="12.2" fill="black"/>
<ellipse cx="791.384" cy="182.75" rx="12.3333" ry="12.2" fill="black"/>
<ellipse cx="816.05" cy="158.35" rx="12.3333" ry="12.2" fill="black"/>
<ellipse cx="816.05" cy="207.15" rx="12.3333" ry="12.2" fill="black"/>
<ellipse cx="840.718" cy="182.75" rx="12.3333" ry="12.2" fill="black"/>
<ellipse cx="840.718" cy="133.95" rx="12.3333" ry="12.2" fill="black"/>
<ellipse cx="840.718" cy="231.55" rx="12.3333" ry="12.2" fill="black"/>
<circle cx="250" cy="130" r="66" fill="black"/>
<circle cx="402" cy="358" r="66" fill="black"/>
<circle cx="43" cy="358" r="66" fill="black"/>
<circle cx="750" cy="358" r="66" fill="black"/>
<circle cx="603" cy="130" r="66" fill="black"/>
<circle cx="957" cy="130" r="66" fill="black"/>
</g>
<defs>
<clipPath id="clip0_222_43">
<rect width="1000" height="488" fill="white"/>
</clipPath>
</defs>
</svg>
