<svg width="1000" height="488" viewBox="0 0 1000 488" fill="none" xmlns="http://www.w3.org/2000/svg">
<g clip-path="url(#clip0_222_142)">
<path d="M233.805 155.153L255.606 172.956L233.805 190.5L212.003 172.956L233.805 155.153Z" fill="black"/>
<path d="M261.904 178.059L283.706 195.862L261.904 213.407L240.103 195.862L261.904 178.059Z" fill="black"/>
<path d="M261.904 223.871L283.706 241.673L261.904 259.218L240.103 241.673L261.904 223.871Z" fill="black"/>
<path d="M261.904 315.494L283.706 333.297L261.904 350.841L240.103 333.297L261.904 315.494Z" fill="black"/>
<path d="M261.904 407.117L283.706 424.92L261.904 442.464L240.103 424.92L261.904 407.117Z" fill="black"/>
<path d="M261.904 269.682L283.706 287.485L261.904 305.03L240.103 287.485L261.904 269.682Z" fill="black"/>
<path d="M261.904 361.304L283.706 379.107L261.904 396.652L240.103 379.107L261.904 361.304Z" fill="black"/>
<path d="M261.904 452.928L283.706 470.731L261.904 488.276L240.103 470.731L261.904 452.928Z" fill="black"/>
<path d="M233.805 246.777L255.606 264.58L233.805 282.124L212.003 264.58L233.805 246.777Z" fill="black"/>
<path d="M233.805 338.398L255.606 356.201L233.805 373.746L212.003 356.201L233.805 338.398Z" fill="black"/>
<path d="M233.805 430.023L255.606 447.826L233.805 465.371L212.003 447.826L233.805 430.023Z" fill="black"/>
<path d="M318.102 178.059L339.903 195.862L318.102 213.407L296.3 195.862L318.102 178.059Z" fill="black"/>
<path d="M346.201 155.153L368.003 172.956L346.201 190.5L324.399 172.956L346.201 155.153Z" fill="black"/>
<path d="M318.102 223.871L339.903 241.673L318.102 259.218L296.3 241.673L318.102 223.871Z" fill="black"/>
<path d="M318.102 315.494L339.903 333.297L318.102 350.841L296.3 333.297L318.102 315.494Z" fill="black"/>
<path d="M318.102 407.117L339.903 424.92L318.102 442.464L296.3 424.92L318.102 407.117Z" fill="black"/>
<path d="M318.102 269.682L339.903 287.485L318.102 305.03L296.3 287.485L318.102 269.682Z" fill="black"/>
<path d="M318.102 363.304L339.903 381.107L318.102 398.652L296.3 381.107L318.102 363.304Z" fill="black"/>
<path d="M318.102 452.928L339.903 470.731L318.102 488.276L296.3 470.731L318.102 452.928Z" fill="black"/>
<path d="M346.201 246.777L368.003 264.58L346.201 282.124L324.399 264.58L346.201 246.777Z" fill="black"/>
<path d="M346.201 338.398L368.003 356.201L346.201 373.746L324.399 356.201L346.201 338.398Z" fill="black"/>
<path d="M346.201 430.023L368.003 447.826L346.201 465.371L324.399 447.826L346.201 430.023Z" fill="black"/>
<path d="M655.805 155.153L677.606 172.956L655.805 190.5L634.003 172.956L655.805 155.153Z" fill="black"/>
<path d="M683.902 178.059L705.704 195.862L683.902 213.407L662.101 195.862L683.902 178.059Z" fill="black"/>
<path d="M683.902 223.871L705.704 241.673L683.902 259.218L662.101 241.673L683.902 223.871Z" fill="black"/>
<path d="M683.902 315.494L705.704 333.297L683.902 350.841L662.101 333.297L683.902 315.494Z" fill="black"/>
<path d="M683.902 407.117L705.704 424.92L683.902 442.464L662.101 424.92L683.902 407.117Z" fill="black"/>
<path d="M683.902 269.682L705.704 287.485L683.902 305.03L662.101 287.485L683.902 269.682Z" fill="black"/>
<path d="M683.902 361.304L705.704 379.107L683.902 396.652L662.101 379.107L683.902 361.304Z" fill="black"/>
<path d="M683.902 452.928L705.704 470.731L683.902 488.276L662.101 470.731L683.902 452.928Z" fill="black"/>
<path d="M655.805 246.777L677.606 264.58L655.805 282.124L634.003 264.58L655.805 246.777Z" fill="black"/>
<path d="M655.805 338.398L677.606 356.201L655.805 373.746L634.003 356.201L655.805 338.398Z" fill="black"/>
<path d="M655.805 430.023L677.606 447.826L655.805 465.371L634.003 447.826L655.805 430.023Z" fill="black"/>
<path d="M740.102 178.059L761.903 195.862L740.102 213.407L718.3 195.862L740.102 178.059Z" fill="black"/>
<path d="M768.199 155.153L790.001 172.956L768.199 190.5L746.398 172.956L768.199 155.153Z" fill="black"/>
<path d="M740.102 223.871L761.903 241.673L740.102 259.218L718.3 241.673L740.102 223.871Z" fill="black"/>
<path d="M740.102 315.494L761.903 333.297L740.102 350.841L718.3 333.297L740.102 315.494Z" fill="black"/>
<path d="M740.102 407.117L761.903 424.92L740.102 442.464L718.3 424.92L740.102 407.117Z" fill="black"/>
<path d="M740.102 269.682L761.903 287.485L740.102 305.03L718.3 287.485L740.102 269.682Z" fill="black"/>
<path d="M740.102 363.304L761.903 381.107L740.102 398.652L718.3 381.107L740.102 363.304Z" fill="black"/>
<path d="M740.102 452.928L761.903 470.731L740.102 488.276L718.3 470.731L740.102 452.928Z" fill="black"/>
<path d="M768.199 246.777L790.001 264.58L768.199 282.124L746.398 264.58L768.199 246.777Z" fill="black"/>
<path d="M768.199 338.398L790.001 356.201L768.199 373.746L746.398 356.201L768.199 338.398Z" fill="black"/>
<path d="M768.199 430.023L790.001 447.826L768.199 465.371L746.398 447.826L768.199 430.023Z" fill="black"/>
<path d="M557.199 332.533L535.398 314.731L557.199 297.186L579.001 314.731L557.199 332.533Z" fill="black"/>
<path d="M529.101 309.627L507.299 291.825L529.101 274.28L550.902 291.825L529.101 309.627Z" fill="black"/>
<path d="M529.101 263.816L507.299 246.013L529.101 228.468L550.902 246.013L529.101 263.816Z" fill="black"/>
<path d="M529.101 172.193L507.299 154.39L529.101 136.845L550.902 154.39L529.101 172.193Z" fill="black"/>
<path d="M529.101 80.5696L507.299 62.767L529.101 45.2222L550.902 62.767L529.101 80.5696Z" fill="black"/>
<path d="M529.101 218.004L507.299 200.202L529.101 182.657L550.902 200.202L529.101 218.004Z" fill="black"/>
<path d="M529.101 126.382L507.299 108.579L529.101 91.0347L550.902 108.579L529.101 126.382Z" fill="black"/>
<path d="M529.101 34.7581L507.299 16.9554L529.101 -0.589298L550.902 16.9554L529.101 34.7581Z" fill="black"/>
<path d="M557.199 240.909L535.398 223.107L557.199 205.562L579.001 223.107L557.199 240.909Z" fill="black"/>
<path d="M557.199 149.288L535.398 131.486L557.199 113.941L579.001 131.486L557.199 149.288Z" fill="black"/>
<path d="M557.201 57.6634L535.399 39.8607L557.201 22.316L579.003 39.8607L557.201 57.6634Z" fill="black"/>
<path d="M472.903 309.627L451.102 291.825L472.903 274.28L494.705 291.825L472.903 309.627Z" fill="black"/>
<path d="M444.804 332.533L423.002 314.731L444.804 297.186L466.605 314.731L444.804 332.533Z" fill="black"/>
<path d="M472.903 263.816L451.102 246.013L472.903 228.468L494.705 246.013L472.903 263.816Z" fill="black"/>
<path d="M472.903 172.193L451.102 154.39L472.903 136.845L494.705 154.39L472.903 172.193Z" fill="black"/>
<path d="M472.903 80.5696L451.102 62.767L472.903 45.2222L494.705 62.767L472.903 80.5696Z" fill="black"/>
<path d="M472.903 218.004L451.102 200.202L472.903 182.657L494.705 200.202L472.903 218.004Z" fill="black"/>
<path d="M472.903 124.382L451.102 106.579L472.903 89.0347L494.705 106.579L472.903 124.382Z" fill="black"/>
<path d="M472.903 34.7581L451.102 16.9554L472.903 -0.589298L494.705 16.9554L472.903 34.7581Z" fill="black"/>
<path d="M444.804 240.909L423.002 223.107L444.804 205.562L466.605 223.107L444.804 240.909Z" fill="black"/>
<path d="M444.804 149.288L423.002 131.486L444.804 113.941L466.605 131.486L444.804 149.288Z" fill="black"/>
<path d="M444.804 57.6634L423.002 39.8607L444.804 22.316L466.605 39.8607L444.804 57.6634Z" fill="black"/>
<path d="M978.199 332.533L956.398 314.731L978.199 297.186L1000 314.731L978.199 332.533Z" fill="black"/>
<path d="M950.1 309.627L928.298 291.825L950.1 274.28L971.901 291.825L950.1 309.627Z" fill="black"/>
<path d="M950.098 263.816L928.296 246.013L950.098 228.468L971.899 246.013L950.098 263.816Z" fill="black"/>
<path d="M950.098 172.193L928.296 154.39L950.098 136.845L971.899 154.39L950.098 172.193Z" fill="black"/>
<path d="M950.1 80.5696L928.298 62.767L950.1 45.2222L971.901 62.767L950.1 80.5696Z" fill="black"/>
<path d="M950.098 218.004L928.296 200.202L950.098 182.657L971.899 200.202L950.098 218.004Z" fill="black"/>
<path d="M950.1 126.382L928.298 108.579L950.1 91.0347L971.901 108.579L950.1 126.382Z" fill="black"/>
<path d="M950.1 34.7581L928.298 16.9554L950.1 -0.589298L971.901 16.9554L950.1 34.7581Z" fill="black"/>
<path d="M978.197 240.909L956.396 223.107L978.197 205.562L999.999 223.107L978.197 240.909Z" fill="black"/>
<path d="M978.197 149.288L956.396 131.486L978.197 113.941L999.999 131.486L978.197 149.288Z" fill="black"/>
<path d="M978.199 57.6634L956.398 39.8607L978.199 22.316L1000 39.8607L978.199 57.6634Z" fill="black"/>
<path d="M893.902 309.627L872.101 291.825L893.902 274.28L915.704 291.825L893.902 309.627Z" fill="black"/>
<path d="M865.801 332.533L843.999 314.731L865.801 297.186L887.602 314.731L865.801 332.533Z" fill="black"/>
<path d="M893.9 263.816L872.099 246.013L893.9 228.468L915.702 246.013L893.9 263.816Z" fill="black"/>
<path d="M893.9 172.193L872.099 154.39L893.9 136.845L915.702 154.39L893.9 172.193Z" fill="black"/>
<path d="M893.902 80.5696L872.101 62.767L893.902 45.2222L915.704 62.767L893.902 80.5696Z" fill="black"/>
<path d="M893.9 218.004L872.099 200.202L893.9 182.657L915.702 200.202L893.9 218.004Z" fill="black"/>
<path d="M893.902 124.382L872.101 106.579L893.902 89.0347L915.704 106.579L893.902 124.382Z" fill="black"/>
<path d="M893.902 34.7581L872.101 16.9554L893.902 -0.589298L915.704 16.9554L893.902 34.7581Z" fill="black"/>
<path d="M865.801 240.909L843.999 223.107L865.801 205.562L887.602 223.107L865.801 240.909Z" fill="black"/>
<path d="M865.801 149.288L843.999 131.486L865.801 113.941L887.602 131.486L865.801 149.288Z" fill="black"/>
<path d="M865.803 57.6634L844.001 39.8607L865.803 22.316L887.604 39.8607L865.803 57.6634Z" fill="black"/>
<path d="M135.198 332.533L113.397 314.731L135.198 297.186L157 314.731L135.198 332.533Z" fill="black"/>
<path d="M107.099 309.627L85.2969 291.825L107.099 274.28L128.9 291.825L107.099 309.627Z" fill="black"/>
<path d="M107.099 263.816L85.2969 246.013L107.099 228.468L128.9 246.013L107.099 263.816Z" fill="black"/>
<path d="M107.099 172.193L85.2969 154.39L107.099 136.845L128.9 154.39L107.099 172.193Z" fill="black"/>
<path d="M107.099 80.5696L85.2969 62.767L107.099 45.2222L128.9 62.767L107.099 80.5696Z" fill="black"/>
<path d="M107.099 218.004L85.2969 200.202L107.099 182.657L128.9 200.202L107.099 218.004Z" fill="black"/>
<path d="M107.099 126.382L85.2969 108.579L107.099 91.0347L128.9 108.579L107.099 126.382Z" fill="black"/>
<path d="M107.099 34.7581L85.2969 16.9554L107.099 -0.589298L128.9 16.9554L107.099 34.7581Z" fill="black"/>
<path d="M135.198 240.909L113.397 223.107L135.198 205.562L157 223.107L135.198 240.909Z" fill="black"/>
<path d="M135.198 149.288L113.397 131.486L135.198 113.941L157 131.486L135.198 149.288Z" fill="black"/>
<path d="M135.198 57.6634L113.397 39.8607L135.198 22.316L157 39.8607L135.198 57.6634Z" fill="black"/>
<path d="M50.9014 309.627L29.0997 291.825L50.9014 274.28L72.7031 291.825L50.9014 309.627Z" fill="black"/>
<path d="M22.8018 332.533L1.00006 314.731L22.8018 297.186L44.6035 314.731L22.8018 332.533Z" fill="black"/>
<path d="M50.9014 263.816L29.0997 246.013L50.9014 228.468L72.7031 246.013L50.9014 263.816Z" fill="black"/>
<path d="M50.9014 172.193L29.0997 154.39L50.9014 136.845L72.7031 154.39L50.9014 172.193Z" fill="black"/>
<path d="M50.9014 80.5696L29.0997 62.767L50.9014 45.2222L72.7031 62.767L50.9014 80.5696Z" fill="black"/>
<path d="M50.9014 218.004L29.0997 200.202L50.9014 182.657L72.7031 200.202L50.9014 218.004Z" fill="black"/>
<path d="M50.9014 124.382L29.0997 106.579L50.9014 89.0347L72.7031 106.579L50.9014 124.382Z" fill="black"/>
<path d="M50.9014 34.7581L29.0997 16.9554L50.9014 -0.589298L72.7031 16.9554L50.9014 34.7581Z" fill="black"/>
<path d="M22.8018 240.909L1.00006 223.107L22.8018 205.562L44.6035 223.107L22.8018 240.909Z" fill="black"/>
<path d="M22.8018 149.288L1.00006 131.486L22.8018 113.941L44.6035 131.486L22.8018 149.288Z" fill="black"/>
<path d="M22.8018 57.6634L1.00006 39.8607L22.8018 22.316L44.6035 39.8607L22.8018 57.6634Z" fill="black"/>
</g>
<defs>
<clipPath id="clip0_222_142">
<rect width="1000" height="488" fill="white"/>
</clipPath>
</defs>
</svg>
