<svg width="1000" height="488" viewBox="0 0 1000 488" fill="none" xmlns="http://www.w3.org/2000/svg">
<rect x="286" y="325" width="22" height="101" fill="black"/>
<rect x="320" y="325" width="22" height="101" fill="black"/>
<rect x="354" y="325" width="24" height="101" fill="black"/>
<rect x="303" y="419" width="22" height="39" fill="black"/>
<rect x="320" y="453" width="22" height="25" fill="black"/>
<rect x="354" y="453" width="24" height="25" fill="black"/>
<rect x="389" y="453" width="23" height="25" fill="black"/>
<rect x="338" y="419" width="21" height="39" fill="black"/>
<rect x="338" y="473" width="21" height="14" fill="black"/>
<rect x="372" y="473" width="22" height="14" fill="black"/>
<rect x="407" y="473" width="22" height="14" fill="black"/>
<rect x="372" y="419" width="22" height="39" fill="black"/>
<rect x="714" y="487" width="22" height="101" transform="rotate(-180 714 487)" fill="black"/>
<rect x="680" y="487" width="22" height="101" transform="rotate(-180 680 487)" fill="black"/>
<rect x="646" y="487" width="24" height="101" transform="rotate(-180 646 487)" fill="black"/>
<rect x="697" y="393" width="22" height="39" transform="rotate(-180 697 393)" fill="black"/>
<rect x="680" y="359" width="22" height="25" transform="rotate(-180 680 359)" fill="black"/>
<rect x="646" y="359" width="24" height="25" transform="rotate(-180 646 359)" fill="black"/>
<rect x="611" y="359" width="23" height="25" transform="rotate(-180 611 359)" fill="black"/>
<rect x="662" y="393" width="21" height="39" transform="rotate(-180 662 393)" fill="black"/>
<rect x="662" y="339" width="21" height="14" transform="rotate(-180 662 339)" fill="black"/>
<rect x="628" y="339" width="22" height="14" transform="rotate(-180 628 339)" fill="black"/>
<rect x="593" y="339" width="22" height="14" transform="rotate(-180 593 339)" fill="black"/>
<rect x="628" y="393" width="22" height="39" transform="rotate(-180 628 393)" fill="black"/>
<rect x="144" y="487" width="22" height="101" transform="rotate(-180 144 487)" fill="black"/>
<rect x="110" y="487" width="22" height="101" transform="rotate(-180 110 487)" fill="black"/>
<rect x="76" y="487" width="24" height="101" transform="rotate(-180 76 487)" fill="black"/>
<rect x="127" y="393" width="22" height="39" transform="rotate(-180 127 393)" fill="black"/>
<rect x="110" y="359" width="22" height="25" transform="rotate(-180 110 359)" fill="black"/>
<rect x="76" y="359" width="24" height="25" transform="rotate(-180 76 359)" fill="black"/>
<rect x="41" y="359" width="23" height="25" transform="rotate(-180 41 359)" fill="black"/>
<rect x="92" y="393" width="21" height="39" transform="rotate(-180 92 393)" fill="black"/>
<rect x="92" y="339" width="21" height="14" transform="rotate(-180 92 339)" fill="black"/>
<rect x="58" y="339" width="22" height="14" transform="rotate(-180 58 339)" fill="black"/>
<rect x="23" y="339" width="22" height="14" transform="rotate(-180 23 339)" fill="black"/>
<rect x="58" y="393" width="22" height="39" transform="rotate(-180 58 393)" fill="black"/>
<rect x="856" y="325" width="22" height="101" fill="black"/>
<rect x="890" y="325" width="22" height="101" fill="black"/>
<rect x="924" y="325" width="24" height="101" fill="black"/>
<rect x="873" y="419" width="22" height="39" fill="black"/>
<rect x="890" y="453" width="22" height="25" fill="black"/>
<rect x="924" y="453" width="24" height="25" fill="black"/>
<rect x="959" y="453" width="23" height="25" fill="black"/>
<rect x="908" y="419" width="21" height="39" fill="black"/>
<rect x="908" y="473" width="21" height="14" fill="black"/>
<rect x="942" y="473" width="22" height="14" fill="black"/>
<rect x="977" y="473" width="22" height="14" fill="black"/>
<rect x="942" y="419" width="22" height="39" fill="black"/>
<rect x="286" y="325" width="22" height="101" transform="rotate(-180 286 325)" fill="black"/>
<rect x="252" y="325" width="22" height="101" transform="rotate(-180 252 325)" fill="black"/>
<rect x="218" y="325" width="24" height="101" transform="rotate(-180 218 325)" fill="black"/>
<rect x="269" y="231" width="22" height="39" transform="rotate(-180 269 231)" fill="black"/>
<rect x="252" y="197" width="22" height="25" transform="rotate(-180 252 197)" fill="black"/>
<rect x="218" y="197" width="24" height="25" transform="rotate(-180 218 197)" fill="black"/>
<rect x="183" y="197" width="23" height="25" transform="rotate(-180 183 197)" fill="black"/>
<rect x="234" y="231" width="21" height="39" transform="rotate(-180 234 231)" fill="black"/>
<rect x="234" y="177" width="21" height="14" transform="rotate(-180 234 177)" fill="black"/>
<rect x="200" y="177" width="22" height="14" transform="rotate(-180 200 177)" fill="black"/>
<rect x="165" y="177" width="22" height="14" transform="rotate(-180 165 177)" fill="black"/>
<rect x="200" y="231" width="22" height="39" transform="rotate(-180 200 231)" fill="black"/>
<rect x="428" y="163" width="22" height="101" fill="black"/>
<rect x="462" y="163" width="22" height="101" fill="black"/>
<rect x="496" y="163" width="24" height="101" fill="black"/>
<rect x="445" y="257" width="22" height="39" fill="black"/>
<rect x="462" y="291" width="22" height="25" fill="black"/>
<rect x="496" y="291" width="24" height="25" fill="black"/>
<rect x="531" y="291" width="23" height="25" fill="black"/>
<rect x="480" y="257" width="21" height="39" fill="black"/>
<rect x="480" y="311" width="21" height="14" fill="black"/>
<rect x="514" y="311" width="22" height="14" fill="black"/>
<rect x="549" y="311" width="22" height="14" fill="black"/>
<rect x="514" y="257" width="22" height="39" fill="black"/>
<rect x="856" y="325" width="22" height="101" transform="rotate(-180 856 325)" fill="black"/>
<rect x="822" y="325" width="22" height="101" transform="rotate(-180 822 325)" fill="black"/>
<rect x="788" y="325" width="24" height="101" transform="rotate(-180 788 325)" fill="black"/>
<rect x="839" y="231" width="22" height="39" transform="rotate(-180 839 231)" fill="black"/>
<rect x="822" y="197" width="22" height="25" transform="rotate(-180 822 197)" fill="black"/>
<rect x="788" y="197" width="24" height="25" transform="rotate(-180 788 197)" fill="black"/>
<rect x="753" y="197" width="23" height="25" transform="rotate(-180 753 197)" fill="black"/>
<rect x="804" y="231" width="21" height="39" transform="rotate(-180 804 231)" fill="black"/>
<rect x="804" y="177" width="21" height="14" transform="rotate(-180 804 177)" fill="black"/>
<rect x="770" y="177" width="22" height="14" transform="rotate(-180 770 177)" fill="black"/>
<rect x="735" y="177" width="22" height="14" transform="rotate(-180 735 177)" fill="black"/>
<rect x="770" y="231" width="22" height="39" transform="rotate(-180 770 231)" fill="black"/>
<rect y="1" width="22" height="101" fill="black"/>
<rect x="34" y="1" width="22" height="101" fill="black"/>
<rect x="68" y="1" width="24" height="101" fill="black"/>
<rect x="17" y="95" width="22" height="39" fill="black"/>
<rect x="34" y="129" width="22" height="25" fill="black"/>
<rect x="68" y="129" width="24" height="25" fill="black"/>
<rect x="103" y="129" width="23" height="25" fill="black"/>
<rect x="52" y="95" width="21" height="39" fill="black"/>
<rect x="52" y="149" width="21" height="14" fill="black"/>
<rect x="86" y="149" width="22" height="14" fill="black"/>
<rect x="121" y="149" width="22" height="14" fill="black"/>
<rect x="86" y="95" width="22" height="39" fill="black"/>
<rect x="428" y="163" width="22" height="101" transform="rotate(-180 428 163)" fill="black"/>
<rect x="394" y="163" width="22" height="101" transform="rotate(-180 394 163)" fill="black"/>
<rect x="360" y="163" width="24" height="101" transform="rotate(-180 360 163)" fill="black"/>
<rect x="411" y="69" width="22" height="39" transform="rotate(-180 411 69)" fill="black"/>
<rect x="394" y="35" width="22" height="25" transform="rotate(-180 394 35)" fill="black"/>
<rect x="360" y="35" width="24" height="25" transform="rotate(-180 360 35)" fill="black"/>
<rect x="325" y="35" width="23" height="25" transform="rotate(-180 325 35)" fill="black"/>
<rect x="376" y="69" width="21" height="39" transform="rotate(-180 376 69)" fill="black"/>
<rect x="376" y="15" width="21" height="14" transform="rotate(-180 376 15)" fill="black"/>
<rect x="342" y="15" width="22" height="14" transform="rotate(-180 342 15)" fill="black"/>
<rect x="307" y="15" width="22" height="14" transform="rotate(-180 307 15)" fill="black"/>
<rect x="342" y="69" width="22" height="39" transform="rotate(-180 342 69)" fill="black"/>
<rect x="999" y="163" width="22" height="101" transform="rotate(-180 999 163)" fill="black"/>
<rect x="965" y="163" width="22" height="101" transform="rotate(-180 965 163)" fill="black"/>
<rect x="931" y="163" width="24" height="101" transform="rotate(-180 931 163)" fill="black"/>
<rect x="982" y="69" width="22" height="39" transform="rotate(-180 982 69)" fill="black"/>
<rect x="965" y="35" width="22" height="25" transform="rotate(-180 965 35)" fill="black"/>
<rect x="931" y="35" width="24" height="25" transform="rotate(-180 931 35)" fill="black"/>
<rect x="896" y="35" width="23" height="25" transform="rotate(-180 896 35)" fill="black"/>
<rect x="947" y="69" width="21" height="39" transform="rotate(-180 947 69)" fill="black"/>
<rect x="947" y="15" width="21" height="14" transform="rotate(-180 947 15)" fill="black"/>
<rect x="913" y="15" width="22" height="14" transform="rotate(-180 913 15)" fill="black"/>
<rect x="878" y="15" width="22" height="14" transform="rotate(-180 878 15)" fill="black"/>
<rect x="913" y="69" width="22" height="39" transform="rotate(-180 913 69)" fill="black"/>
<rect x="570" y="1" width="22" height="101" fill="black"/>
<rect x="604" y="1" width="22" height="101" fill="black"/>
<rect x="638" y="1" width="24" height="101" fill="black"/>
<rect x="587" y="95" width="22" height="39" fill="black"/>
<rect x="604" y="129" width="22" height="25" fill="black"/>
<rect x="638" y="129" width="24" height="25" fill="black"/>
<rect x="673" y="129" width="23" height="25" fill="black"/>
<rect x="622" y="95" width="21" height="39" fill="black"/>
<rect x="622" y="149" width="21" height="14" fill="black"/>
<rect x="656" y="149" width="22" height="14" fill="black"/>
<rect x="691" y="149" width="22" height="14" fill="black"/>
<rect x="656" y="95" width="22" height="39" fill="black"/>
</svg>
