<svg width="1000" height="488" viewBox="0 0 1000 488" fill="none" xmlns="http://www.w3.org/2000/svg">
<rect x="145" y="105" width="90" height="34" transform="rotate(-180 145 105)" fill="black"/>
<rect x="634" y="263" width="90" height="34" transform="rotate(-180 634 263)" fill="black"/>
<rect x="315" y="17" width="34" height="34" transform="rotate(90 315 17)" fill="black"/>
<rect x="615" y="431" width="34" height="34" transform="rotate(90 615 431)" fill="black"/>
<rect x="675" y="81" width="34" height="34" transform="rotate(90 675 81)" fill="black"/>
<rect x="709" y="48" width="34" height="34" transform="rotate(90 709 48)" fill="black"/>
<rect x="72" y="218" width="45" height="18" transform="rotate(-180 72 218)" fill="black"/>
<rect x="421" y="348" width="45" height="18" transform="rotate(-180 421 348)" fill="black"/>
<rect x="936" y="97" width="45" height="18" transform="rotate(-180 936 97)" fill="black"/>
<rect x="536" y="312" width="118" height="24" transform="rotate(-180 536 312)" fill="black"/>
<rect x="971" y="384" width="118" height="24" transform="rotate(-180 971 384)" fill="black"/>
<rect x="562" y="130" width="85" height="15" transform="rotate(-180 562 130)" fill="black"/>
<rect x="562" y="179" width="85" height="15" transform="rotate(-180 562 179)" fill="black"/>
<rect x="534" y="154" width="20" height="14" transform="rotate(-180 534 154)" fill="black"/>
<rect x="562" y="154" width="14" height="14" transform="rotate(-180 562 154)" fill="black"/>
<rect x="401" y="154" width="14" height="14" transform="rotate(-180 401 154)" fill="black"/>
<rect x="459" y="130" width="85" height="15" transform="rotate(-180 459 130)" fill="black"/>
<rect x="459" y="179" width="85" height="15" transform="rotate(-180 459 179)" fill="black"/>
<rect x="500" y="154" width="85" height="14" transform="rotate(-180 500 154)" fill="black"/>
<rect x="218" y="128" width="24" height="24" transform="rotate(90 218 128)" fill="black"/>
<rect x="242" y="152" width="24" height="24" transform="rotate(90 242 152)" fill="black"/>
<rect x="266" y="128" width="24" height="24" transform="rotate(90 266 128)" fill="black"/>
<rect x="218" y="176" width="24" height="24" transform="rotate(90 218 176)" fill="black"/>
<rect x="266" y="176" width="24" height="24" transform="rotate(90 266 176)" fill="black"/>
<rect x="758" y="359" width="24" height="24" transform="rotate(90 758 359)" fill="black"/>
<rect x="782" y="383" width="24" height="24" transform="rotate(90 782 383)" fill="black"/>
<rect x="806" y="359" width="24" height="24" transform="rotate(90 806 359)" fill="black"/>
<rect x="758" y="407" width="24" height="24" transform="rotate(90 758 407)" fill="black"/>
<rect x="806" y="407" width="24" height="24" transform="rotate(90 806 407)" fill="black"/>
<rect x="181" y="342" width="18" height="18" transform="rotate(-180 181 342)" fill="black"/>
<rect x="109" y="342" width="18" height="18" transform="rotate(-180 109 342)" fill="black"/>
<rect x="254" y="378" width="18" height="18" transform="rotate(-180 254 378)" fill="black"/>
<rect x="36" y="378" width="18" height="18" transform="rotate(-180 36 378)" fill="black"/>
<rect x="254" y="342" width="18" height="18" transform="rotate(-180 254 342)" fill="black"/>
<rect x="36" y="342" width="18" height="18" transform="rotate(-180 36 342)" fill="black"/>
<rect x="181" y="378" width="18" height="18" transform="rotate(-180 181 378)" fill="black"/>
<rect x="109" y="378" width="18" height="18" transform="rotate(-180 109 378)" fill="black"/>
<rect x="217" y="342" width="18" height="18" transform="rotate(-180 217 342)" fill="black"/>
<rect x="145" y="342" width="18" height="18" transform="rotate(-180 145 342)" fill="black"/>
<rect x="72" y="342" width="18" height="18" transform="rotate(-180 72 342)" fill="black"/>
<rect x="217" y="378" width="18" height="18" transform="rotate(-180 217 378)" fill="black"/>
<rect x="145" y="378" width="18" height="18" transform="rotate(-180 145 378)" fill="black"/>
<rect x="72" y="378" width="18" height="18" transform="rotate(-180 72 378)" fill="black"/>
<rect x="909" y="171" width="18" height="18" transform="rotate(-180 909 171)" fill="black"/>
<rect x="837" y="171" width="18" height="18" transform="rotate(-180 837 171)" fill="black"/>
<rect x="982" y="207" width="18" height="18" transform="rotate(-180 982 207)" fill="black"/>
<rect x="764" y="207" width="18" height="18" transform="rotate(-180 764 207)" fill="black"/>
<rect x="982" y="171" width="18" height="18" transform="rotate(-180 982 171)" fill="black"/>
<rect x="764" y="171" width="18" height="18" transform="rotate(-180 764 171)" fill="black"/>
<rect x="909" y="207" width="18" height="18" transform="rotate(-180 909 207)" fill="black"/>
<rect x="837" y="207" width="18" height="18" transform="rotate(-180 837 207)" fill="black"/>
<rect x="945" y="171" width="18" height="18" transform="rotate(-180 945 171)" fill="black"/>
<rect x="873" y="171" width="18" height="18" transform="rotate(-180 873 171)" fill="black"/>
<rect x="800" y="171" width="18" height="18" transform="rotate(-180 800 171)" fill="black"/>
<rect x="945" y="207" width="18" height="18" transform="rotate(-180 945 207)" fill="black"/>
<rect x="873" y="207" width="18" height="18" transform="rotate(-180 873 207)" fill="black"/>
<rect x="800" y="207" width="18" height="18" transform="rotate(-180 800 207)" fill="black"/>
<rect x="797" y="318" width="18" height="18" transform="rotate(-180 797 318)" fill="black"/>
<rect x="725" y="318" width="18" height="18" transform="rotate(-180 725 318)" fill="black"/>
<rect x="870" y="318" width="18" height="18" transform="rotate(-180 870 318)" fill="black"/>
<rect x="652" y="318" width="18" height="18" transform="rotate(-180 652 318)" fill="black"/>
<rect x="833" y="318" width="18" height="18" transform="rotate(-180 833 318)" fill="black"/>
<rect x="761" y="318" width="18" height="18" transform="rotate(-180 761 318)" fill="black"/>
<rect x="688" y="318" width="18" height="18" transform="rotate(-180 688 318)" fill="black"/>
<rect x="387" y="426" width="18" height="18" transform="rotate(-180 387 426)" fill="black"/>
<rect x="369" y="444" width="18" height="18" transform="rotate(-180 369 444)" fill="black"/>
<rect x="387" y="462" width="18" height="18" transform="rotate(-180 387 462)" fill="black"/>
<rect x="351" y="426" width="18" height="18" transform="rotate(-180 351 426)" fill="black"/>
<rect x="351" y="462" width="18" height="18" transform="rotate(-180 351 462)" fill="black"/>
<rect x="351" y="426" width="18" height="18" transform="rotate(-180 351 426)" fill="black"/>
<rect x="333" y="444" width="18" height="18" transform="rotate(-180 333 444)" fill="black"/>
<rect x="351" y="462" width="18" height="18" transform="rotate(-180 351 462)" fill="black"/>
<rect x="315" y="426" width="18" height="18" transform="rotate(-180 315 426)" fill="black"/>
<rect x="315" y="462" width="18" height="18" transform="rotate(-180 315 462)" fill="black"/>
<rect x="315" y="426" width="18" height="18" transform="rotate(-180 315 426)" fill="black"/>
<rect x="297" y="444" width="18" height="18" transform="rotate(-180 297 444)" fill="black"/>
<rect x="315" y="462" width="18" height="18" transform="rotate(-180 315 462)" fill="black"/>
<rect x="279" y="426" width="18" height="18" transform="rotate(-180 279 426)" fill="black"/>
<rect x="279" y="462" width="18" height="18" transform="rotate(-180 279 462)" fill="black"/>
</svg>
