<svg width="1000" height="488" viewBox="0 0 1000 488" fill="none" xmlns="http://www.w3.org/2000/svg">
<g clip-path="url(#clip0_222_56)">
<circle cx="504" cy="48" r="30" fill="black"/>
<circle cx="435.5" cy="48.5" r="22.5" fill="black"/>
<circle cx="572.5" cy="48.5" r="22.5" fill="black"/>
<circle cx="382" cy="48" r="15" fill="black"/>
<circle cx="626" cy="48" r="15" fill="black"/>
<circle cx="343.5" cy="48.5" r="7.5" fill="black"/>
<circle cx="664.5" cy="48.5" r="7.5" fill="black"/>
<circle cx="665" cy="176" r="30" fill="black"/>
<circle cx="596.5" cy="176.5" r="22.5" fill="black"/>
<circle cx="733.5" cy="176.5" r="22.5" fill="black"/>
<circle cx="543" cy="176" r="15" fill="black"/>
<circle cx="787" cy="176" r="15" fill="black"/>
<circle cx="504.5" cy="176.5" r="7.5" fill="black"/>
<circle cx="825.5" cy="176.5" r="7.5" fill="black"/>
<circle cx="665" cy="432" r="30" fill="black"/>
<circle cx="596.5" cy="432.5" r="22.5" fill="black"/>
<circle cx="733.5" cy="432.5" r="22.5" fill="black"/>
<circle cx="543" cy="432" r="15" fill="black"/>
<circle cx="787" cy="432" r="15" fill="black"/>
<circle cx="504.5" cy="432.5" r="7.5" fill="black"/>
<circle cx="825.5" cy="432.5" r="7.5" fill="black"/>
<circle cx="504" cy="304" r="30" fill="black"/>
<circle cx="435.5" cy="304.5" r="22.5" fill="black"/>
<circle cx="572.5" cy="304.5" r="22.5" fill="black"/>
<circle cx="382" cy="304" r="15" fill="black"/>
<circle cx="626" cy="304" r="15" fill="black"/>
<circle cx="343.5" cy="304.5" r="7.5" fill="black"/>
<circle cx="664.5" cy="304.5" r="7.5" fill="black"/>
<circle cx="183" cy="49" r="30" fill="black"/>
<circle cx="114.5" cy="49.5" r="22.5" fill="black"/>
<circle cx="251.5" cy="49.5" r="22.5" fill="black"/>
<circle cx="61" cy="49" r="15" fill="black"/>
<circle cx="305" cy="49" r="15" fill="black"/>
<circle cx="22.5" cy="49.5" r="7.5" fill="black"/>
<circle cx="343.5" cy="49.5" r="7.5" fill="black"/>
<circle cx="344" cy="176" r="30" fill="black"/>
<circle cx="275.5" cy="176.5" r="22.5" fill="black"/>
<circle cx="412.5" cy="176.5" r="22.5" fill="black"/>
<circle cx="222" cy="176" r="15" fill="black"/>
<circle cx="466" cy="176" r="15" fill="black"/>
<circle cx="183.5" cy="176.5" r="7.5" fill="black"/>
<circle cx="504.5" cy="176.5" r="7.5" fill="black"/>
<circle cx="344" cy="432" r="30" fill="black"/>
<circle cx="275.5" cy="432.5" r="22.5" fill="black"/>
<circle cx="412.5" cy="432.5" r="22.5" fill="black"/>
<circle cx="222" cy="432" r="15" fill="black"/>
<circle cx="466" cy="432" r="15" fill="black"/>
<circle cx="183.5" cy="432.5" r="7.5" fill="black"/>
<circle cx="504.5" cy="432.5" r="7.5" fill="black"/>
<circle cx="23" cy="177" r="30" fill="black"/>
<circle cx="91.5" cy="177.5" r="22.5" fill="black"/>
<circle cx="145" cy="177" r="15" fill="black"/>
<circle cx="183.5" cy="177.5" r="7.5" fill="black"/>
<circle cx="23" cy="433" r="30" fill="black"/>
<circle cx="91.5" cy="433.5" r="22.5" fill="black"/>
<circle cx="145" cy="433" r="15" fill="black"/>
<circle cx="183.5" cy="433.5" r="7.5" fill="black"/>
<circle cx="183" cy="305" r="30" fill="black"/>
<circle cx="114.5" cy="305.5" r="22.5" fill="black"/>
<circle cx="251.5" cy="305.5" r="22.5" fill="black"/>
<circle cx="61" cy="305" r="15" fill="black"/>
<circle cx="305" cy="305" r="15" fill="black"/>
<circle cx="22.5" cy="305.5" r="7.5" fill="black"/>
<circle cx="343.5" cy="305.5" r="7.5" fill="black"/>
<circle cx="825" cy="48" r="30" fill="black"/>
<circle cx="756.5" cy="48.5" r="22.5" fill="black"/>
<circle cx="893.5" cy="48.5" r="22.5" fill="black"/>
<circle cx="703" cy="48" r="15" fill="black"/>
<circle cx="947" cy="48" r="15" fill="black"/>
<circle cx="664.5" cy="48.5" r="7.5" fill="black"/>
<circle cx="985.5" cy="48.5" r="7.5" fill="black"/>
<circle cx="986" cy="176" r="30" fill="black"/>
<circle cx="917.5" cy="176.5" r="22.5" fill="black"/>
<circle cx="864" cy="176" r="15" fill="black"/>
<circle cx="825.5" cy="176.5" r="7.5" fill="black"/>
<circle cx="986" cy="431" r="30" fill="black"/>
<circle cx="917.5" cy="431.5" r="22.5" fill="black"/>
<circle cx="864" cy="431" r="15" fill="black"/>
<circle cx="825.5" cy="431.5" r="7.5" fill="black"/>
<circle cx="825" cy="304" r="30" fill="black"/>
<circle cx="756.5" cy="304.5" r="22.5" fill="black"/>
<circle cx="893.5" cy="304.5" r="22.5" fill="black"/>
<circle cx="703" cy="304" r="15" fill="black"/>
<circle cx="947" cy="304" r="15" fill="black"/>
<circle cx="664.5" cy="304.5" r="7.5" fill="black"/>
<circle cx="985.5" cy="304.5" r="7.5" fill="black"/>
</g>
<defs>
<clipPath id="clip0_222_56">
<rect width="1000" height="488" fill="white"/>
</clipPath>
</defs>
</svg>
