<svg width="1000" height="488" viewBox="0 0 1000 488" fill="none" xmlns="http://www.w3.org/2000/svg">
<g clip-path="url(#clip0_216_1212)">
<path d="M58.5 14.5181L1.77535 3.62954L115.225 3.62955L58.5 14.5181Z" fill="black"/>
<path d="M58.5 42.5413L1.77535 19.7513L115.225 19.7513L58.5 42.5413Z" fill="black"/>
<path d="M58.5 88.1208L1.77535 48.6183L115.225 48.6183L58.5 88.1208Z" fill="black"/>
<path d="M58.5 160.711L1.77535 94.6203L115.225 94.6203L58.5 160.711Z" fill="black"/>
<path d="M412.5 14.5181L355.775 3.62954L469.225 3.62955L412.5 14.5181Z" fill="black"/>
<path d="M412.5 42.5413L355.775 19.7513L469.225 19.7513L412.5 42.5413Z" fill="black"/>
<path d="M412.5 88.1208L355.775 48.6183L469.225 48.6183L412.5 88.1208Z" fill="black"/>
<path d="M412.5 160.711L355.775 94.6203L469.225 94.6203L412.5 160.711Z" fill="black"/>
<path d="M766.5 14.5181L709.775 3.62954L823.225 3.62955L766.5 14.5181Z" fill="black"/>
<path d="M766.5 42.5413L709.775 19.7513L823.225 19.7513L766.5 42.5413Z" fill="black"/>
<path d="M766.5 88.1208L709.775 48.6183L823.225 48.6183L766.5 88.1208Z" fill="black"/>
<path d="M235.5 470.193L292.225 481.082L178.775 481.082L235.5 470.193Z" fill="black"/>
<path d="M235.5 442.17L292.225 464.96L178.775 464.96L235.5 442.17Z" fill="black"/>
<path d="M235.5 396.59L292.225 436.093L178.775 436.093L235.5 396.59Z" fill="black"/>
<path d="M589.5 470.193L646.225 481.082L532.775 481.082L589.5 470.193Z" fill="black"/>
<path d="M589.5 442.17L646.225 464.96L532.775 464.96L589.5 442.17Z" fill="black"/>
<path d="M589.5 396.59L646.225 436.093L532.775 436.093L589.5 396.59Z" fill="black"/>
<path d="M589.5 324L646.225 390.091L532.775 390.091L589.5 324Z" fill="black"/>
<path d="M943.5 470.193L1000.22 481.082L886.775 481.082L943.5 470.193Z" fill="black"/>
<path d="M943.5 442.17L1000.22 464.96L886.775 464.96L943.5 442.17Z" fill="black"/>
<path d="M943.5 396.59L1000.22 436.093L886.775 436.093L943.5 396.59Z" fill="black"/>
<path d="M943.5 324L1000.22 390.091L886.775 390.091L943.5 324Z" fill="black"/>
<path d="M58.5 176.518L1.77535 165.63L115.225 165.63L58.5 176.518Z" fill="black"/>
<path d="M58.5 204.541L1.77535 181.751L115.225 181.751L58.5 204.541Z" fill="black"/>
<path d="M58.5 250.121L1.77535 210.618L115.225 210.618L58.5 250.121Z" fill="black"/>
<path d="M58.5 322.711L1.77535 256.62L115.225 256.62L58.5 322.711Z" fill="black"/>
<path d="M412.5 176.518L355.775 165.63L469.225 165.63L412.5 176.518Z" fill="black"/>
<path d="M412.5 204.541L355.775 181.751L469.225 181.751L412.5 204.541Z" fill="black"/>
<path d="M412.5 250.121L355.775 210.618L469.225 210.618L412.5 250.121Z" fill="black"/>
<path d="M766.5 176.518L709.775 165.63L823.225 165.63L766.5 176.518Z" fill="black"/>
<path d="M766.5 204.541L709.775 181.751L823.225 181.751L766.5 204.541Z" fill="black"/>
<path d="M766.5 250.121L709.775 210.618L823.225 210.618L766.5 250.121Z" fill="black"/>
<path d="M766.5 322.711L709.775 256.62L823.225 256.62L766.5 322.711Z" fill="black"/>
<path d="M235.5 308.193L292.225 319.082L178.775 319.082L235.5 308.193Z" fill="black"/>
<path d="M235.5 280.17L292.225 302.96L178.775 302.96L235.5 280.17Z" fill="black"/>
<path d="M235.5 234.59L292.225 274.093L178.775 274.093L235.5 234.59Z" fill="black"/>
<path d="M235.5 162L292.225 228.091L178.775 228.091L235.5 162Z" fill="black"/>
<path d="M589.5 308.193L646.225 319.082L532.775 319.082L589.5 308.193Z" fill="black"/>
<path d="M589.5 280.17L646.225 302.96L532.775 302.96L589.5 280.17Z" fill="black"/>
<path d="M589.5 234.59L646.225 274.093L532.775 274.093L589.5 234.59Z" fill="black"/>
<path d="M943.5 308.193L1000.22 319.082L886.775 319.082L943.5 308.193Z" fill="black"/>
<path d="M943.5 280.17L1000.22 302.96L886.775 302.96L943.5 280.17Z" fill="black"/>
<path d="M943.5 234.59L1000.22 274.093L886.775 274.093L943.5 234.59Z" fill="black"/>
<path d="M943.5 162L1000.22 228.091L886.775 228.091L943.5 162Z" fill="black"/>
<path d="M58.5 338.518L1.77535 327.63L115.225 327.63L58.5 338.518Z" fill="black"/>
<path d="M58.5 366.541L1.77535 343.751L115.225 343.751L58.5 366.541Z" fill="black"/>
<path d="M58.5 412.121L1.77535 372.618L115.225 372.618L58.5 412.121Z" fill="black"/>
<path d="M412.5 338.518L355.775 327.63L469.225 327.63L412.5 338.518Z" fill="black"/>
<path d="M412.5 366.541L355.775 343.751L469.225 343.751L412.5 366.541Z" fill="black"/>
<path d="M412.5 412.121L355.775 372.618L469.225 372.618L412.5 412.121Z" fill="black"/>
<path d="M412.5 484.711L355.775 418.62L469.225 418.62L412.5 484.711Z" fill="black"/>
<path d="M766.5 338.518L709.775 327.63L823.225 327.63L766.5 338.518Z" fill="black"/>
<path d="M766.5 366.541L709.775 343.751L823.225 343.751L766.5 366.541Z" fill="black"/>
<path d="M766.5 412.121L709.775 372.618L823.225 372.618L766.5 412.121Z" fill="black"/>
<path d="M766.5 484.711L709.775 418.62L823.225 418.62L766.5 484.711Z" fill="black"/>
<path d="M235.5 146.193L292.225 157.082L178.775 157.082L235.5 146.193Z" fill="black"/>
<path d="M235.5 118.17L292.225 140.96L178.775 140.96L235.5 118.17Z" fill="black"/>
<path d="M235.5 72.5903L292.225 112.093L178.775 112.093L235.5 72.5903Z" fill="black"/>
<path d="M235.5 1.21152e-05L292.225 66.0909L178.775 66.0908L235.5 1.21152e-05Z" fill="black"/>
<path d="M589.5 146.193L646.225 157.082L532.775 157.082L589.5 146.193Z" fill="black"/>
<path d="M589.5 118.17L646.225 140.96L532.775 140.96L589.5 118.17Z" fill="black"/>
<path d="M589.5 72.5903L646.225 112.093L532.775 112.093L589.5 72.5903Z" fill="black"/>
<path d="M589.5 1.21152e-05L646.225 66.0909L532.775 66.0908L589.5 1.21152e-05Z" fill="black"/>
<path d="M943.5 146.193L1000.22 157.082L886.775 157.082L943.5 146.193Z" fill="black"/>
<path d="M943.5 118.17L1000.22 140.96L886.775 140.96L943.5 118.17Z" fill="black"/>
<path d="M943.5 72.5903L1000.22 112.093L886.775 112.093L943.5 72.5903Z" fill="black"/>
</g>
<defs>
<clipPath id="clip0_216_1212">
<rect width="1000" height="488" fill="white"/>
</clipPath>
</defs>
</svg>
