<svg width="1000" height="488" viewBox="0 0 1000 488" fill="none" xmlns="http://www.w3.org/2000/svg">
<g clip-path="url(#clip0_222_155)">
<path d="M41.8086 3.64782L83.6166 16.2502L41.8086 28.6701L0.000554208 16.2502L41.8086 3.64782Z" fill="black"/>
<path d="M125.284 3.64782L167.092 16.2502L125.284 28.6701L83.4761 16.2502L125.284 3.64782Z" fill="black"/>
<path d="M208.762 3.64782L250.57 16.2502L208.762 28.6701L166.954 16.2502L208.762 3.64782Z" fill="black"/>
<path d="M292.238 3.64782L334.046 16.2502L292.238 28.6701L250.43 16.2502L292.238 3.64782Z" fill="black"/>
<path d="M375.715 3.64782L417.523 16.2502L375.715 28.6701L333.907 16.2502L375.715 3.64782Z" fill="black"/>
<path d="M459.192 3.64782L501 16.2502L459.192 28.6701L417.384 16.2502L459.192 3.64782Z" fill="black"/>
<path d="M250.808 60.6478L292.616 73.2502L250.808 85.6701L209 73.2502L250.808 60.6478Z" fill="black"/>
<path d="M334.283 60.6478L376.091 73.2502L334.283 85.6701L292.475 73.2502L334.283 60.6478Z" fill="black"/>
<path d="M417.761 60.6478L459.569 73.2502L417.761 85.6701L375.953 73.2502L417.761 60.6478Z" fill="black"/>
<path d="M501.237 60.6478L543.045 73.2502L501.237 85.6701L459.429 73.2502L501.237 60.6478Z" fill="black"/>
<path d="M584.715 60.6478L626.523 73.2502L584.715 85.6701L542.907 73.2502L584.715 60.6478Z" fill="black"/>
<path d="M567.809 159.648L609.617 172.25L567.809 184.67L526.001 172.25L567.809 159.648Z" fill="black"/>
<path d="M707.283 318.648L749.091 331.25L707.283 343.67L665.475 331.25L707.283 318.648Z" fill="black"/>
<path d="M790.762 318.648L832.57 331.25L790.762 343.67L748.954 331.25L790.762 318.648Z" fill="black"/>
<path d="M874.238 318.648L916.046 331.25L874.238 343.67L832.43 331.25L874.238 318.648Z" fill="black"/>
<path d="M957.715 318.648L999.523 331.25L957.715 343.67L915.907 331.25L957.715 318.648Z" fill="black"/>
<path d="M737.809 60.6478L779.617 73.2502L737.809 85.6701L696.001 73.2502L737.809 60.6478Z" fill="black"/>
<path d="M821.283 60.6478L863.091 73.2502L821.283 85.6701L779.475 73.2502L821.283 60.6478Z" fill="black"/>
<path d="M415.808 318.648L457.616 331.25L415.808 343.67L374 331.25L415.808 318.648Z" fill="black"/>
<path d="M499.283 318.648L541.091 331.25L499.283 343.67L457.475 331.25L499.283 318.648Z" fill="black"/>
<path d="M42.8076 458.648L84.6156 471.25L42.8076 483.67L0.999578 471.25L42.8076 458.648Z" fill="black"/>
<path d="M126.283 458.648L168.091 471.25L126.283 483.67L84.4752 471.25L126.283 458.648Z" fill="black"/>
<path d="M124.808 318.648L166.616 331.25L124.808 343.67L82.9996 331.25L124.808 318.648Z" fill="black"/>
<path d="M917.809 159.648L959.617 172.25L917.809 184.67L876.001 172.25L917.809 159.648Z" fill="black"/>
<path d="M125.808 159.648L167.616 172.25L125.808 184.67L83.9996 172.25L125.808 159.648Z" fill="black"/>
<path d="M209.283 159.648L251.091 172.25L209.283 184.67L167.475 172.25L209.283 159.648Z" fill="black"/>
<path d="M209.808 390.648L251.616 403.25L209.808 415.67L168 403.25L209.808 390.648Z" fill="black"/>
<path d="M293.283 390.648L335.091 403.25L293.283 415.67L251.475 403.25L293.283 390.648Z" fill="black"/>
<path d="M290.808 159.648L332.616 172.25L290.808 184.67L249 172.25L290.808 159.648Z" fill="black"/>
<path d="M374.283 159.648L416.091 172.25L374.283 184.67L332.475 172.25L374.283 159.648Z" fill="black"/>
<path d="M374.808 390.648L416.616 403.25L374.808 415.67L333 403.25L374.808 390.648Z" fill="black"/>
<path d="M458.283 390.648L500.091 403.25L458.283 415.67L416.475 403.25L458.283 390.648Z" fill="black"/>
<path d="M664.809 204.648L706.617 217.25L664.809 229.67L623.001 217.25L664.809 204.648Z" fill="black"/>
<path d="M831.809 204.648L873.617 217.25L831.809 229.67L790.001 217.25L831.809 204.648Z" fill="black"/>
<path d="M748.283 204.648L790.091 217.25L748.283 229.67L706.475 217.25L748.283 204.648Z" fill="black"/>
<path d="M792.809 458.648L834.617 471.25L792.809 483.67L751.001 471.25L792.809 458.648Z" fill="black"/>
<path d="M959.809 458.648L1001.62 471.25L959.809 483.67L918.001 471.25L959.809 458.648Z" fill="black"/>
<path d="M876.283 458.648L918.091 471.25L876.283 483.67L834.475 471.25L876.283 458.648Z" fill="black"/>
</g>
<defs>
<clipPath id="clip0_222_155">
<rect width="1000" height="488" fill="white"/>
</clipPath>
</defs>
</svg>
