<svg width="141" height="149" viewBox="0 0 141 149" fill="none" xmlns="http://www.w3.org/2000/svg">
<path id="Vector" fill-rule="evenodd" clip-rule="evenodd" d="M134.349 6.01017C135.397 6.8905 136 8.2249 136 9.63343V99.2142C136 113.689 125.009 125.467 111.494 125.467C97.9838 125.467 86.9929 113.689 86.9929 99.2142C86.9929 84.7351 97.9838 72.9572 111.494 72.9572C117.498 72.9572 123 75.2923 127.267 79.1473V38.6288L54.0071 56.5644V117.748C54.0071 132.222 43.0162 144 29.5057 144C15.9909 144 5 132.222 5 117.748C5 103.268 15.9909 91.4905 29.5057 91.4905C35.5099 91.4905 41.0075 93.8257 45.2738 97.6806V29.7096C45.2738 27.5552 46.6798 25.6833 48.6579 25.1968L130.655 5.11825C131.294 4.96182 131.959 4.96058 132.598 5.11462C133.238 5.26865 133.837 5.57399 134.349 6.00785V6.01017ZM29.5057 134.733C38.1998 134.733 45.2738 127.112 45.2738 117.748C45.2738 108.379 38.1998 100.757 29.5057 100.757C20.8073 100.757 13.7333 108.379 13.7333 117.748C13.7333 127.112 20.8073 134.733 29.5057 134.733ZM54.0071 47.0499L127.267 29.1166V15.4575L54.0071 33.3978V47.0499ZM111.494 116.198C120.193 116.198 127.267 108.576 127.267 99.2119C127.267 89.8433 120.193 82.2215 111.494 82.2215C102.8 82.2215 95.7262 89.8433 95.7262 99.2119C95.7262 108.576 102.8 116.198 111.494 116.198Z" fill="#8D8D8D" stroke="#8D8D8D" stroke-width="10"/>
</svg>
